<svg width="26" height="33" viewBox="0 0 26 33" fill="none" xmlns="http://www.w3.org/2000/svg">
<g clip-path="url(#clip0_3002_6)">
<path fill-rule="evenodd" clip-rule="evenodd" d="M8.53324 5.75706C9.85546 4.92179 11.4221 4.43838 13.1017 4.43838C17.8324 4.43838 21.6674 8.27337 21.6674 13.0041C21.6674 17.1252 18.757 20.5666 14.8794 21.385V12.6807C14.8794 9.04589 12.0888 6.0628 8.53324 5.75706ZM4.53601 13.002C4.53608 12.7099 4.55077 12.4213 4.57938 12.1367C4.83971 10.5209 6.24072 9.28681 7.92996 9.28681C9.80439 9.28681 11.3239 10.8063 11.3239 12.6807V21.385C7.44702 20.5667 4.53697 17.1263 4.53601 13.0061V13.0041V13.002ZM1.05182 11.681C1.00478 12.0075 0.980438 12.3413 0.980438 12.6807V13.0041V25.9333C0.980438 29.7714 4.09185 32.8829 7.92996 32.8829C11.768 32.8829 14.8794 29.7714 14.8794 25.9333V24.9959C20.731 24.1358 25.2229 19.0945 25.2229 13.0041C25.2229 6.30968 19.7961 0.882812 13.1017 0.882812C6.8544 0.882812 1.71097 5.60901 1.05182 11.681ZM11.3239 24.9959V25.9333C11.3239 27.8078 9.80439 29.3273 7.92996 29.3273C6.05554 29.3273 4.53601 27.8078 4.53601 25.9333V21.5804C6.33309 23.3753 8.69085 24.6089 11.3239 24.9959Z" fill="#222222"/>
</g>
<defs>
<clipPath id="clip0_3002_6">
<rect width="25" height="32" fill="white" transform="translate(0.980438 0.882812)"/>
</clipPath>
</defs>
</svg>
